<?xml version="1.0" standalone="no"?><!DOCTYPE svg PUBLIC "-//W3C//DTD SVG 1.1//EN" "http://www.w3.org/Graphics/SVG/1.1/DTD/svg11.dtd"><svg t="1570448679656" class="icon" viewBox="0 0 1024 1024" version="1.1" xmlns="http://www.w3.org/2000/svg" p-id="1103" width="16" height="16" xmlns:xlink="http://www.w3.org/1999/xlink"><defs><style type="text/css"></style></defs><path d="M882.5 532.5c0 16.2-5.9 30.4-17.6 42.8L829.2 611c-12 12-26.5 18.1-43.3 18.1-17.1 0-31.4-6-42.8-18.1L603.3 471.5v334.7c0 16.5-5.9 29.9-17.8 40.2-11.9 10.3-26.2 15.5-43 15.5h-60.9c-16.8 0-31.1-5.2-43-15.5s-17.8-23.7-17.8-40.2V471.5L280.9 611c-11.4 12-25.7 18.1-42.8 18.1s-31.4-6-42.8-18.1l-35.7-35.7c-12-12-18.1-26.3-18.1-42.8 0-16.8 6-31.2 18.1-43.3l309.5-309.5c11.1-11.7 25.4-17.6 42.8-17.6 17.1 0 31.5 5.9 43.3 17.6l309.5 309.5c11.8 12.3 17.8 26.8 17.8 43.3z" p-id="1104"></path></svg>